<svg xmlns="http://www.w3.org/2000/svg" xmlns:xlink="http://www.w3.org/1999/xlink" width="101" height="116" viewBox="0 0 101 116"><defs><path id="higsa" d="M944.735 1040.002l50.076-28.998 50.076 28.998v57.995l-50.076 28.998-50.076-28.998z"/><path id="higsb" d="M949.743 1043.002l45.068-25.999 45.068 25.999v51.995l-45.068 25.999-45.068-25.999z"/><path id="higsc" d="M986.17 1062.163l-.06 12.663c.002 1.06-1.34 2.923-1.34 2.923-.992 2.957 1.5 4.01-.243 5.817 2.317 4.76-2.34 5.434-2.34 5.434-1.596 0-1.346-1.591-1.346-1.591l-.016-9.916c.136-2.514-1.433-2.572-1.433-2.572-3.789.005-3.95-4.053-3.956-4.542a3.293 3.293 0 0 1-1.439-2.72c0-1.127.568-2.12 1.431-2.712v-.11c-.007-3.985 4.109-4.172 4.109-4.172l5.206-.01c1.683-.003 1.432 1.504 1.428 1.508zm24.833 5.017c.004 1.725-.973 3.214-2.388 3.976l.023 11.55c.078 1.428-1.025.059-1.025.059s-4.779-8.837-18.754-8.81c0 0-1.32.001-1.32-1.259l-.022-10.93s-.236-1.26 1.239-1.263c0 0 12.504.736 18.549-8.692 0 0 1.273-1.684 1.277-.17l.019 11.573c1.418.76 2.402 2.237 2.402 3.966zm-3.962-12.851c-3.976 6.18-12.197 7.334-12.197 7.334 10.652-.108 12.197-7.334 12.197-7.334zm1.93 9.851c1.583 2.32 1.16 4.29 1.16 4.29.965-3.053-1.16-4.29-1.16-4.29z"/></defs><g><g transform="translate(-944 -1011)"><use fill="#fe8682" xlink:href="#higsa"/></g><g transform="translate(-944 -1011)"><use fill="#fc635e" xlink:href="#higsb"/></g><g transform="translate(-944 -1011)"><use fill="#fff" xlink:href="#higsc"/></g></g></svg>