<svg xmlns="http://www.w3.org/2000/svg" xmlns:xlink="http://www.w3.org/1999/xlink" width="47" height="32" viewBox="0 0 47 32"><defs><path id="2poka" d="M751.718 423.995h19.587c8.653 0 15.692 7.176 15.692 15.999 0 8.822-7.039 15.999-15.692 15.999h-19.587c-7.69 0-11.713-8.27-11.713-16.44 0-7.494 3.665-15.558 11.713-15.558zm0 28.987h7.321c1.065-3.355 4.165-15 .048-25.976h-7.37c-6.05 0-8.758 6.302-8.758 12.547 0 6.51 3.07 13.429 8.759 13.429zm19.587-25.976h-9.076c1.418 4.2 1.92 8.409 1.92 12.24 0 5.984-1.208 11.046-2.005 13.736h9.161c7.024 0 12.738-5.827 12.738-12.988 0-7.162-5.714-12.988-12.738-12.988zM757.09 441.31h-10.708c-.815 0-1.476-.674-1.476-1.506 0-.83.661-1.506 1.476-1.506h10.708c.815 0 1.477.675 1.477 1.506 0 .832-.661 1.506-1.477 1.506z"/></defs><g><g opacity=".2" transform="translate(-740 -424)"><use fill="#fff" xlink:href="#2poka"/></g></g></svg>